<svg width="2144" height="338" viewBox="0 0 2144 338" fill="none" xmlns="http://www.w3.org/2000/svg">
<g clip-path="url(#clip0_225_15)">
<g clip-path="url(#clip1_225_15)">
<path d="M0 70.8284C0 69.0466 2.15428 68.1543 3.41421 69.4142L31.3431 97.3431C34.4673 100.467 39.5327 100.467 42.6569 97.3431L140 0V60.6822C140 72.4063 135.321 83.6457 127.001 91.9062L3.40914 214.615C2.14715 215.868 0 214.974 0 213.196V70.8284Z" fill="#0065FF"/>
<path d="M140 267.172C140 268.953 137.846 269.846 136.586 268.586L108.657 240.657C105.533 237.533 100.467 237.533 97.3431 240.657L0 338V277.318C0 265.594 4.67911 254.354 12.999 246.094L136.591 123.385C137.853 122.132 140 123.026 140 124.804V267.172Z" fill="#0065FF"/>
</g>
<path d="M397.631 57H445.631L384.831 191.72L362.431 135.4L397.631 57ZM344.511 175.08L344.831 174.44L367.551 230.44L344.511 281L340.031 270.44L244.031 57H291.391L344.511 175.08ZM522.581 191.4V236.2H612.181L594.261 281H477.781V57H612.181L594.261 101.8H522.581V146.6H589.781L571.861 191.4H522.581ZM688.831 236.2H778.431V281H644.031V57H688.831V236.2ZM915.881 67.56L1011.88 281H964.201L928.361 202.6H928.681L911.081 163.56L893.481 202.6L913.961 247.4H873.321L872.681 249L857.961 281H810.281L906.281 67.56L910.761 57L915.881 67.56ZM1200.83 135.4C1200.83 152.04 1196.03 167.08 1186.43 180.52C1177.04 193.747 1164.99 203.133 1150.27 208.68L1200.83 281H1146.11L1088.83 199.08V281H1044.03V57H1089.15V101.8H1088.83V169H1122.43C1131.6 169 1139.5 165.693 1146.11 159.08C1152.72 152.467 1156.03 144.573 1156.03 135.4C1156.03 126.227 1152.72 118.333 1146.11 111.72C1139.5 105.107 1131.6 101.8 1122.43 101.8H1119.87V57H1122.43C1143.98 57 1162.43 64.68 1177.79 80.04C1193.15 95.4 1200.83 113.853 1200.83 135.4ZM1389.91 216.68C1403.14 229.693 1419.03 236.2 1437.59 236.2C1456.15 236.2 1472.05 229.587 1485.27 216.36L1516.95 248.04C1506.5 258.28 1494.45 266.387 1480.79 272.36C1467.35 278.12 1452.95 281 1437.59 281C1406.66 281 1380.21 270.12 1358.23 248.36C1336.47 226.387 1325.59 199.933 1325.59 169C1325.59 138.28 1336.47 111.933 1358.23 89.96C1380.21 67.9867 1406.66 57 1437.59 57C1452.95 57 1467.35 59.9867 1480.79 65.96C1494.45 71.72 1506.5 79.6133 1516.95 89.64L1485.27 121.64C1471.83 108.413 1455.94 101.8 1437.59 101.8C1419.03 101.8 1403.14 108.413 1389.91 121.64C1376.9 134.867 1370.39 150.653 1370.39 169C1370.39 187.56 1376.9 203.453 1389.91 216.68ZM1661.03 57C1691.75 57 1718.1 67.9867 1740.07 89.96C1762.04 111.933 1773.03 138.28 1773.03 169C1773.03 199.933 1762.04 226.387 1740.07 248.36C1718.1 270.12 1691.75 281 1661.03 281C1630.1 281 1603.64 270.12 1581.67 248.36C1559.91 226.387 1549.03 199.933 1549.03 169C1549.03 138.28 1559.91 111.933 1581.67 89.96C1603.64 67.9867 1630.1 57 1661.03 57ZM1661.03 236.2C1679.38 236.2 1695.16 229.693 1708.39 216.68C1721.62 203.453 1728.23 187.56 1728.23 169C1728.23 150.653 1721.62 134.867 1708.39 121.64C1695.16 108.413 1679.38 101.8 1661.03 101.8C1642.47 101.8 1626.58 108.413 1613.35 121.64C1600.34 134.867 1593.83 150.653 1593.83 169C1593.83 187.56 1600.34 203.453 1613.35 216.68C1626.58 229.693 1642.47 236.2 1661.03 236.2ZM1961.77 135.4C1961.77 152.04 1956.97 167.08 1947.37 180.52C1937.98 193.747 1925.93 203.133 1911.21 208.68L1961.77 281H1907.05L1849.77 199.08V281H1804.97V57H1850.09V101.8H1849.77V169H1883.37C1892.54 169 1900.44 165.693 1907.05 159.08C1913.66 152.467 1916.97 144.573 1916.97 135.4C1916.97 126.227 1913.66 118.333 1907.05 111.72C1900.44 105.107 1892.54 101.8 1883.37 101.8H1880.81V57H1883.37C1904.92 57 1923.37 64.68 1938.73 80.04C1954.09 95.4 1961.77 113.853 1961.77 135.4ZM2038.52 191.4V236.2H2128.12L2110.2 281H1993.72V57H2128.12L2110.2 101.8H2038.52V146.6H2105.72L2087.8 191.4H2038.52Z" fill="white"/>
</g>
<defs>
<clipPath id="clip0_225_15">
<rect width="2144" height="338" fill="white"/>
</clipPath>
<clipPath id="clip1_225_15">
<rect width="140" height="338" fill="white"/>
</clipPath>
</defs>
</svg>
